<mxfile host="app.diagrams.net" modified="2022-08-27T06:12:20.883Z" agent="5.0 (Windows NT 10.0; Win64; x64) AppleWebKit/537.36 (KHTML, like Gecko) Chrome/103.0.0.0 Safari/537.36" etag="ha4qMXLNUG5CZpY8Ejxd" version="20.2.3" type="github">
  <diagram id="9XztaX--Hxvt78yDErT7" name="第 1 页">
    <mxGraphModel dx="831" dy="989" grid="1" gridSize="10" guides="1" tooltips="1" connect="1" arrows="1" fold="1" page="1" pageScale="1" pageWidth="827" pageHeight="1169" math="0" shadow="0">
      <root>
        <mxCell id="0" />
        <mxCell id="1" parent="0" />
        <mxCell id="39OgSNEK6oQk0CM4EhVE-1" value="" style="endArrow=none;html=1;rounded=0;" edge="1" parent="1">
          <mxGeometry width="50" height="50" relative="1" as="geometry">
            <mxPoint x="40" y="320" as="sourcePoint" />
            <mxPoint x="520" y="320" as="targetPoint" />
            <Array as="points">
              <mxPoint x="120" y="320" />
              <mxPoint x="120" y="360" />
              <mxPoint x="400" y="360" />
              <mxPoint x="400" y="320" />
            </Array>
          </mxGeometry>
        </mxCell>
        <mxCell id="39OgSNEK6oQk0CM4EhVE-2" value="&lt;font style=&quot;font-size: 18px;&quot;&gt;空&lt;br&gt;闲&lt;br&gt;位&lt;/font&gt;" style="text;html=1;align=center;verticalAlign=middle;resizable=0;points=[];autosize=1;strokeColor=none;fillColor=none;" vertex="1" parent="1">
          <mxGeometry x="80" y="360" width="40" height="80" as="geometry" />
        </mxCell>
        <mxCell id="39OgSNEK6oQk0CM4EhVE-3" value="起&lt;br&gt;始&lt;br&gt;位" style="text;html=1;align=center;verticalAlign=middle;resizable=0;points=[];autosize=1;strokeColor=none;fillColor=none;fontSize=18;" vertex="1" parent="1">
          <mxGeometry x="120" y="360" width="40" height="80" as="geometry" />
        </mxCell>
        <mxCell id="39OgSNEK6oQk0CM4EhVE-4" value="数据位" style="text;html=1;align=center;verticalAlign=middle;resizable=0;points=[];autosize=1;strokeColor=none;fillColor=none;fontSize=18;" vertex="1" parent="1">
          <mxGeometry x="220" y="360" width="80" height="40" as="geometry" />
        </mxCell>
        <mxCell id="39OgSNEK6oQk0CM4EhVE-5" value="先发低位，再发高位" style="text;html=1;align=center;verticalAlign=middle;resizable=0;points=[];autosize=1;strokeColor=none;fillColor=none;fontSize=18;" vertex="1" parent="1">
          <mxGeometry x="165" y="400" width="190" height="40" as="geometry" />
        </mxCell>
        <mxCell id="39OgSNEK6oQk0CM4EhVE-7" value="校&lt;br&gt;验&lt;br&gt;位" style="text;html=1;align=center;verticalAlign=middle;resizable=0;points=[];autosize=1;strokeColor=none;fillColor=none;fontSize=18;" vertex="1" parent="1">
          <mxGeometry x="360" y="360" width="40" height="80" as="geometry" />
        </mxCell>
        <mxCell id="39OgSNEK6oQk0CM4EhVE-8" value="停&lt;br&gt;止&lt;br&gt;位" style="text;html=1;align=center;verticalAlign=middle;resizable=0;points=[];autosize=1;strokeColor=none;fillColor=none;fontSize=18;" vertex="1" parent="1">
          <mxGeometry x="400" y="360" width="40" height="80" as="geometry" />
        </mxCell>
        <mxCell id="39OgSNEK6oQk0CM4EhVE-9" value="&lt;font style=&quot;font-size: 18px;&quot;&gt;空&lt;br&gt;闲&lt;br&gt;位&lt;/font&gt;" style="text;html=1;align=center;verticalAlign=middle;resizable=0;points=[];autosize=1;strokeColor=none;fillColor=none;" vertex="1" parent="1">
          <mxGeometry x="440" y="360" width="40" height="80" as="geometry" />
        </mxCell>
        <mxCell id="39OgSNEK6oQk0CM4EhVE-10" value="" style="endArrow=none;dashed=1;html=1;rounded=0;fontSize=18;exitX=1;exitY=0.013;exitDx=0;exitDy=0;exitPerimeter=0;" edge="1" parent="1" source="39OgSNEK6oQk0CM4EhVE-3">
          <mxGeometry width="50" height="50" relative="1" as="geometry">
            <mxPoint x="160" y="350" as="sourcePoint" />
            <mxPoint x="400" y="320" as="targetPoint" />
            <Array as="points">
              <mxPoint x="160" y="320" />
            </Array>
          </mxGeometry>
        </mxCell>
        <mxCell id="39OgSNEK6oQk0CM4EhVE-11" value="0" style="text;html=1;align=center;verticalAlign=middle;resizable=0;points=[];autosize=1;strokeColor=none;fillColor=none;fontSize=18;" vertex="1" parent="1">
          <mxGeometry x="125" y="320" width="30" height="40" as="geometry" />
        </mxCell>
        <mxCell id="39OgSNEK6oQk0CM4EhVE-12" value="1" style="text;html=1;align=center;verticalAlign=middle;resizable=0;points=[];autosize=1;strokeColor=none;fillColor=none;fontSize=18;" vertex="1" parent="1">
          <mxGeometry x="85" y="320" width="30" height="40" as="geometry" />
        </mxCell>
        <mxCell id="39OgSNEK6oQk0CM4EhVE-13" value="1" style="text;html=1;align=center;verticalAlign=middle;resizable=0;points=[];autosize=1;strokeColor=none;fillColor=none;fontSize=18;" vertex="1" parent="1">
          <mxGeometry x="405" y="320" width="30" height="40" as="geometry" />
        </mxCell>
        <mxCell id="39OgSNEK6oQk0CM4EhVE-14" value="1" style="text;html=1;align=center;verticalAlign=middle;resizable=0;points=[];autosize=1;strokeColor=none;fillColor=none;fontSize=18;" vertex="1" parent="1">
          <mxGeometry x="445" y="320" width="30" height="40" as="geometry" />
        </mxCell>
        <mxCell id="39OgSNEK6oQk0CM4EhVE-15" value="&lt;font style=&quot;font-size: 14px;&quot;&gt;5-8位&lt;/font&gt;" style="text;html=1;align=center;verticalAlign=middle;resizable=0;points=[];autosize=1;strokeColor=none;fillColor=none;fontSize=18;" vertex="1" parent="1">
          <mxGeometry x="230" y="430" width="60" height="40" as="geometry" />
        </mxCell>
        <mxCell id="39OgSNEK6oQk0CM4EhVE-16" value="&lt;font style=&quot;font-size: 14px;&quot;&gt;1/1.5/2位&lt;/font&gt;" style="text;html=1;align=center;verticalAlign=middle;resizable=0;points=[];autosize=1;strokeColor=none;fillColor=none;fontSize=18;" vertex="1" parent="1">
          <mxGeometry x="380" y="430" width="80" height="40" as="geometry" />
        </mxCell>
        <mxCell id="39OgSNEK6oQk0CM4EhVE-18" value="1位" style="text;html=1;align=center;verticalAlign=middle;resizable=0;points=[];autosize=1;strokeColor=none;fillColor=none;fontSize=14;" vertex="1" parent="1">
          <mxGeometry x="115" y="435" width="50" height="30" as="geometry" />
        </mxCell>
        <mxCell id="39OgSNEK6oQk0CM4EhVE-19" value="0/1" style="text;html=1;align=center;verticalAlign=middle;resizable=0;points=[];autosize=1;strokeColor=none;fillColor=none;fontSize=14;" vertex="1" parent="1">
          <mxGeometry x="240" y="325" width="40" height="30" as="geometry" />
        </mxCell>
        <mxCell id="39OgSNEK6oQk0CM4EhVE-20" value="" style="endArrow=none;dashed=1;html=1;rounded=0;fontSize=14;" edge="1" parent="1">
          <mxGeometry width="50" height="50" relative="1" as="geometry">
            <mxPoint x="359" y="320" as="sourcePoint" />
            <mxPoint x="359" y="440" as="targetPoint" />
          </mxGeometry>
        </mxCell>
        <mxCell id="39OgSNEK6oQk0CM4EhVE-21" value="" style="endArrow=none;dashed=1;html=1;rounded=0;fontSize=14;" edge="1" parent="1">
          <mxGeometry width="50" height="50" relative="1" as="geometry">
            <mxPoint x="400" y="320" as="sourcePoint" />
            <mxPoint x="400" y="440" as="targetPoint" />
          </mxGeometry>
        </mxCell>
        <mxCell id="39OgSNEK6oQk0CM4EhVE-22" value="" style="endArrow=none;dashed=1;html=1;rounded=0;fontSize=14;" edge="1" parent="1">
          <mxGeometry width="50" height="50" relative="1" as="geometry">
            <mxPoint x="120" y="280" as="sourcePoint" />
            <mxPoint x="120" y="440" as="targetPoint" />
          </mxGeometry>
        </mxCell>
        <mxCell id="39OgSNEK6oQk0CM4EhVE-23" value="" style="endArrow=none;dashed=1;html=1;rounded=0;fontSize=14;" edge="1" parent="1">
          <mxGeometry width="50" height="50" relative="1" as="geometry">
            <mxPoint x="160" y="320" as="sourcePoint" />
            <mxPoint x="160" y="440" as="targetPoint" />
          </mxGeometry>
        </mxCell>
        <mxCell id="39OgSNEK6oQk0CM4EhVE-24" value="" style="endArrow=none;dashed=1;html=1;rounded=0;fontSize=14;" edge="1" parent="1">
          <mxGeometry width="50" height="50" relative="1" as="geometry">
            <mxPoint x="440" y="280" as="sourcePoint" />
            <mxPoint x="440" y="440" as="targetPoint" />
          </mxGeometry>
        </mxCell>
        <mxCell id="39OgSNEK6oQk0CM4EhVE-26" style="edgeStyle=orthogonalEdgeStyle;rounded=0;orthogonalLoop=1;jettySize=auto;html=1;fontSize=14;" edge="1" parent="1" source="39OgSNEK6oQk0CM4EhVE-25">
          <mxGeometry relative="1" as="geometry">
            <mxPoint x="120" y="295" as="targetPoint" />
          </mxGeometry>
        </mxCell>
        <mxCell id="39OgSNEK6oQk0CM4EhVE-27" style="edgeStyle=orthogonalEdgeStyle;rounded=0;orthogonalLoop=1;jettySize=auto;html=1;fontSize=14;" edge="1" parent="1" source="39OgSNEK6oQk0CM4EhVE-25">
          <mxGeometry relative="1" as="geometry">
            <mxPoint x="440" y="295" as="targetPoint" />
          </mxGeometry>
        </mxCell>
        <mxCell id="39OgSNEK6oQk0CM4EhVE-25" value="第n个字符" style="text;html=1;align=center;verticalAlign=middle;resizable=0;points=[];autosize=1;strokeColor=none;fillColor=none;fontSize=14;" vertex="1" parent="1">
          <mxGeometry x="215" y="280" width="90" height="30" as="geometry" />
        </mxCell>
      </root>
    </mxGraphModel>
  </diagram>
</mxfile>
